<svg version="1.2" xmlns="http://www.w3.org/2000/svg" viewBox="0 0 878 750" width="878" height="750"><style>.a{fill:#263238}.b{fill:#fafafa}.c{fill:#ebebeb}.d{fill:#ff725e}.e{fill:#fff}.f{fill:#e0e0e0}.g{fill:#455a64}.h{fill:#ffbe9d}.i{fill:#eb996e}</style><path class="a" d="m877.8 748.4c0 0.3-196.5 0.5-438.8 0.5-242.4 0-438.8-0.2-438.8-0.5 0-0.3 196.4-0.5 438.8-0.5 242.3 0 438.8 0.2 438.8 0.5z"/><path class="b" d="m545.8 339.1h-155.5l-29.7 44.1-29-44.1h-152.7c-9.8 0-17.7-7.9-17.7-17.7v-302.9c0-9.8 7.9-17.7 17.7-17.7h366.9c9.7 0 17.6 7.9 17.6 17.7v302.9c0 9.8-7.9 17.7-17.6 17.7z"/><path class="a" d="m545.8 339.1q0 0 0.9-0.1 1 0 2.9-0.4c2.4-0.6 6.2-1.9 9.5-5.7 1.6-1.9 3-4.4 3.7-7.4 0.2-0.7 0.3-1.5 0.4-2.3 0-0.8 0.1-1.6 0.1-2.4q0-2.6 0-5.3 0-11-0.1-25.2c0-37.9-0.1-92.7-0.1-160.5 0-33.9-0.1-71-0.1-110.8 0.1-4.9-1.9-9.8-5.6-13.2-1.8-1.6-3.9-2.9-6.3-3.7-2.4-0.8-4.9-0.9-7.5-0.8q-15.4 0-31.3 0-31.9 0-65.5 0c-44.8 0-91.8 0-140.6 0-24.3 0-49.2 0-74.3 0q-18.9 0-38.1 0-4.7 0-9.5 0h-4.8c-0.9 0-1.6 0.1-2.4 0.1-0.8 0.2-1.5 0.2-2.3 0.4-3 0.7-5.8 2.4-8.1 4.6-2.1 2.2-3.8 5-4.5 8.1-0.7 2.7-0.4 5.6-0.5 8.5q0 4.4 0 8.8 0 8.7 0 17.3 0 17.3 0 34.4 0 34.2 0 67.5c0 44.3 0 87.2 0 128.3q0 15.5 0 30.6 0 3.7 0 7.5c0 2.5-0.2 5 0.3 7.4 0.9 4.7 4 9 8.1 11.4 2 1.2 4.3 2 6.7 2.3 2.3 0.2 4.8 0.1 7.2 0.1q7.3 0 14.5 0 14.3 0 28.3 0c37.2 0.1 72.3 0.1 104.8 0.1h0.2l0.1 0.2q15.2 23.1 29 44.1h-0.6q15.9-23.6 29.7-44.1l0.1-0.1h0.2c49.2 0 88 0.1 114.6 0.1 13.3 0.1 23.5 0.1 30.4 0.1q5.2 0 7.8 0 2.6 0.1 2.7 0.1-0.1 0-2.7 0-2.6 0-7.8 0.1c-6.9 0-17.1 0-30.4 0.1-26.6 0-65.4 0-114.6 0.1l0.2-0.1q-13.8 20.5-29.6 44.1l-0.3 0.4-0.3-0.4q-13.8-21-29-44.1l0.3 0.2c-32.5 0-67.6 0-104.8 0q-14 0-28.3 0-7.2 0-14.5 0.1c-2.4-0.1-4.8 0.1-7.3-0.2-2.5-0.3-4.9-1.1-7.1-2.4-4.3-2.6-7.6-7-8.5-12.1-0.5-2.5-0.3-5-0.4-7.5q0-3.8 0-7.5 0-15.1 0-30.6c0-41.1 0-84 0-128.3q0-33.3 0-67.5 0-17.1 0-34.4 0-8.6 0-17.3 0-4.4 0-8.8v-4.3c0-1.5 0.1-3 0.5-4.5 0.8-3.2 2.5-6.2 4.8-8.6 2.4-2.3 5.3-4 8.6-4.8 0.8-0.2 1.6-0.3 2.4-0.4 0.8-0.1 1.7-0.1 2.5-0.1h4.8q4.8 0 9.5 0 19.2 0 38.1 0c25.1 0 50 0 74.3 0 48.8 0 95.8 0 140.6 0q33.6 0 65.5 0 15.9 0.1 31.3 0.1c2.6-0.1 5.3 0 7.8 0.9 2.4 0.8 4.7 2.1 6.6 3.9 1.9 1.8 3.5 3.9 4.5 6.3 1 2.4 1.4 4.9 1.4 7.5-0.1 39.8-0.1 76.9-0.1 110.8-0.1 67.8-0.1 122.6-0.2 160.5q0 14.2 0 25.2 0 2.7 0 5.3c0 0.8-0.1 1.6-0.1 2.4-0.2 0.8-0.2 1.6-0.4 2.4-0.8 3-2.2 5.5-3.9 7.4-3.3 3.8-7.1 5.2-9.6 5.7q-1.9 0.4-2.9 0.4-0.9 0-0.9 0z"/><path fill-rule="evenodd" class="a" d="m317.5 187.1c0 3.9-3 6.3-7.7 6.3h-3.5v4.9h-4.1v-17.6h7.6c4.7 0 7.7 2.4 7.7 6.4zm-4.2 0c0-2-1.2-3.1-3.7-3.1h-3.3v6.1h3.3c2.5 0 3.7-1.1 3.7-3z"/><path fill-rule="evenodd" class="a" d="m331.9 190.6v7.7h-3.6v-1.7c-0.8 1.2-2.2 1.9-4.2 1.9-3.1 0-5-1.8-5-4.1 0-2.4 1.7-4.1 5.8-4.1h3.1c0-1.6-1-2.6-3.1-2.6-1.4 0-2.9 0.5-3.9 1.2l-1.4-2.7c1.5-1.1 3.7-1.6 5.8-1.6 4.2 0 6.5 1.9 6.5 6zm-3.9 3.4v-1.4h-2.7c-1.8 0-2.4 0.7-2.4 1.6 0 1 0.8 1.7 2.2 1.7 1.3 0 2.5-0.6 2.9-1.9z"/><path class="a" d="m334.2 197l1.3-2.8c1.2 0.8 3 1.3 4.7 1.3 1.8 0 2.5-0.4 2.5-1.2 0-2.2-8.2 0-8.2-5.4 0-2.5 2.3-4.3 6.3-4.3 1.8 0 3.9 0.4 5.2 1.1l-1.3 2.8c-1.4-0.7-2.7-1-3.9-1-1.8 0-2.5 0.6-2.5 1.3 0 2.3 8.1 0.1 8.1 5.4 0 2.5-2.3 4.3-6.4 4.3-2.2 0-4.6-0.6-5.8-1.5z"/><path class="a" d="m347.5 197l1.3-2.8c1.3 0.8 3.1 1.3 4.7 1.3 1.9 0 2.5-0.4 2.5-1.2 0-2.2-8.1 0-8.1-5.4 0-2.5 2.3-4.3 6.2-4.3 1.9 0 4 0.4 5.2 1.1l-1.3 2.8c-1.3-0.7-2.6-1-3.9-1-1.7 0-2.5 0.6-2.5 1.3 0 2.3 8.2 0.1 8.2 5.4 0 2.5-2.4 4.3-6.4 4.3-2.3 0-4.6-0.6-5.9-1.5z"/><path class="a" d="m383.7 184.8l-4.9 13.5h-3.8l-3-8.4-3.2 8.4h-3.8l-4.8-13.5h3.7l3.2 9.1 3.3-9.1h3.3l3.2 9.1 3.3-9.1z"/><path fill-rule="evenodd" class="a" d="m384.1 191.5c0-4 3.2-6.9 7.5-6.9 4.3 0 7.4 2.9 7.4 6.9 0 4.1-3.1 7-7.4 7-4.3 0-7.5-2.9-7.5-7zm10.9 0c0-2.3-1.5-3.7-3.4-3.7-2 0-3.5 1.4-3.5 3.7 0 2.4 1.5 3.8 3.5 3.8 1.9 0 3.4-1.4 3.4-3.8z"/><path class="a" d="m410 184.6v3.6c-0.3 0-0.6-0.1-0.9-0.1-2.1 0-3.6 1.2-3.6 3.8v6.4h-3.9v-13.5h3.8v1.7c0.9-1.3 2.5-1.9 4.6-1.9z"/><path fill-rule="evenodd" class="a" d="m426 179.6v18.7h-3.7v-1.6c-1 1.2-2.4 1.8-4.2 1.8-3.9 0-6.8-2.7-6.8-7 0-4.2 2.9-6.9 6.8-6.9 1.6 0 3 0.5 4 1.6v-6.6zm-3.8 11.9c0-2.3-1.6-3.7-3.5-3.7-2 0-3.5 1.4-3.5 3.7 0 2.4 1.5 3.8 3.5 3.8 1.9 0 3.5-1.4 3.5-3.8z"/><path class="c" d="m263.7 294.3h-25.5c-6 0-10.9-4.9-10.9-11v-43.7c0-6 4.9-10.9 10.9-10.9h25.5c6.1 0 11 4.9 11 10.9v43.7c0 6.1-4.9 11-11 11z"/><path class="c" d="m375.6 294.3h-24.3c-6 0-10.9-4.9-10.9-11v-43.7c0-6 4.9-10.9 10.9-10.9h24.3c6 0 10.9 4.9 10.9 10.9v43.7c0 6.1-4.9 11-10.9 11z"/><path class="c" d="m320.1 294.3h-24.2c-6 0-10.9-4.9-10.9-11v-43.7c0-6 4.9-10.9 10.9-10.9h24.2c6.1 0 11 4.9 11 10.9v43.7c0 6.1-4.9 11-11 11z"/><path class="c" d="m432 294.3h-25.5c-6 0-10.9-4.9-10.9-11v-43.7c0-6 4.9-10.9 10.9-10.9h25.5c6.1 0 11 4.9 11 10.9v43.7c0 6.1-4.9 11-11 11z"/><path class="c" d="m486.4 294.3h-25.5c-6 0-10.9-4.9-10.9-11v-43.7c0-6 4.9-10.9 10.9-10.9h25.5c6.1 0 11 4.9 11 10.9v43.7c0 6.1-4.9 11-11 11z"/><path class="d" d="m257.1 259.7l5 2.8-2.2 3.8-5.1-3v5.6h-4.3v-5.7l-5.1 3.1-2.2-3.8 5-2.8-5-2.8 2.2-3.8 5.1 3.1v-5.7h4.3v5.7l5.1-3.1 2.2 3.8z"/><path class="d" d="m312.3 259.4l5.1 2.8-2.3 3.8-5.1-3 0.1 5.6h-4.4l0.1-5.7-5.2 3.1-2.2-3.8 5.1-2.8-5.1-2.8 2.2-3.8 5.2 3.1-0.1-5.7h4.4l-0.1 5.7 5.1-3.1 2.3 3.8z"/><path class="d" d="m368.9 259.4l5.1 2.8-2.3 3.8-5.1-3 0.1 5.6h-4.4v-5.7l-5.1 3.1-2.2-3.8 5.1-2.8-5.1-2.8 2.2-3.8 5.1 3.1v-5.7h4.4l-0.1 5.7 5.1-3.1 2.3 3.8z"/><path class="d" d="m423.7 259.4l5.1 2.8-2.3 3.8-5.1-3 0.1 5.6h-4.4l0.1-5.7-5.2 3.1-2.2-3.8 5.1-2.8-5.1-2.8 2.2-3.8 5.2 3.1-0.1-5.7h4.4l-0.1 5.7 5.1-3.1 2.3 3.8z"/><path fill-rule="evenodd" class="a" d="m263.2 294.7h-24.5c-6.3 0-11.4-5.2-11.4-11.5v-43.5c0-6.3 5.1-11.4 11.4-11.4h24.5c6.3 0 11.5 5.1 11.5 11.4v43.5c0 6.3-5.2 11.5-11.5 11.5zm-24.5-65.6c-5.9 0-10.6 4.8-10.6 10.6v43.5c0 5.9 4.7 10.7 10.6 10.7h24.5c5.9 0 10.7-4.8 10.7-10.7v-43.5c0-5.8-4.8-10.6-10.7-10.6z"/><path fill-rule="evenodd" class="a" d="m320.2 294.7h-24.6c-6.3 0-11.4-5.2-11.4-11.5v-43.5c0-6.3 5.1-11.4 11.4-11.4h24.6c6.3 0 11.4 5.1 11.4 11.4v43.5c0 6.3-5.1 11.5-11.4 11.5zm-24.6-65.6c-5.8 0-10.6 4.8-10.6 10.6v43.5c0 5.9 4.8 10.7 10.6 10.7h24.6c5.8 0 10.6-4.8 10.6-10.7v-43.5c0-5.8-4.8-10.6-10.6-10.6z"/><path fill-rule="evenodd" class="a" d="m375.6 294.7h-24.6c-6.3 0-11.4-5.2-11.4-11.5v-43.5c0-6.3 5.1-11.4 11.4-11.4h24.6c6.3 0 11.4 5.1 11.4 11.4v43.5c0 6.3-5.1 11.5-11.4 11.5zm-24.6-65.6c-5.8 0-10.6 4.8-10.6 10.6v43.5c0 5.9 4.8 10.7 10.6 10.7h24.6c5.8 0 10.6-4.8 10.6-10.7v-43.5c0-5.8-4.8-10.6-10.6-10.6z"/><path fill-rule="evenodd" class="a" d="m431.6 294.7h-24.6c-6.3 0-11.4-5.2-11.4-11.5v-43.5c0-6.3 5.1-11.4 11.4-11.4h24.6c6.3 0 11.4 5.1 11.4 11.4v43.5c0 6.3-5.1 11.5-11.4 11.5zm-24.6-65.6c-5.8 0-10.6 4.8-10.6 10.6v43.5c0 5.9 4.8 10.7 10.6 10.7h24.6c5.8 0 10.6-4.8 10.6-10.7v-43.5c0-5.8-4.8-10.6-10.6-10.6z"/><path fill-rule="evenodd" class="a" d="m485.9 294.7h-24.5c-6.3 0-11.4-5.2-11.4-11.5v-43.5c0-6.3 5.1-11.4 11.4-11.4h24.5c6.3 0 11.5 5.1 11.5 11.4v43.5c0 6.3-5.2 11.5-11.5 11.5zm-24.5-65.6c-5.8 0-10.6 4.8-10.6 10.6v43.5c0 5.9 4.8 10.7 10.6 10.7h24.5c5.9 0 10.7-4.8 10.7-10.7v-43.5c0-5.8-4.8-10.6-10.7-10.6z"/><path class="d" d="m486.8 277.3c0 0.3-5.9 0.5-13.1 0.5-7.3 0-13.2-0.2-13.2-0.5 0-0.3 5.9-0.6 13.2-0.6 7.2 0 13.1 0.3 13.1 0.6z"/><path class="d" d="m417.5 107.7c0 29.3-23.8 53-53 53-29.3 0-53-23.7-53-53 0-29.3 23.7-53 53-53 29.2 0 53 23.7 53 53z"/><path class="e" d="m355.2 98.1h-0.9v-5c0-5.7 4.6-10.3 10.3-10.3 5.7 0 10.3 4.6 10.3 10.3v4h-0.8v-4c0-5.2-4.3-9.4-9.5-9.4-5.2 0-9.4 4.2-9.4 9.4z"/><path fill-rule="evenodd" class="e" d="m377.6 132.6h-26.2c-2.5 0-4.4-1.9-4.4-4.4v-26.2c0-2.4 1.9-4.4 4.4-4.4h26.2c2.4 0 4.4 2 4.4 4.4v26.2c0 2.5-2 4.4-4.4 4.4zm-26.2-34.1c-2 0-3.5 1.6-3.5 3.5v26.2c0 2 1.5 3.5 3.5 3.5h26.2c1.9 0 3.5-1.5 3.5-3.5v-26.2c0-1.9-1.6-3.5-3.5-3.5z"/><path fill-rule="evenodd" class="e" d="m364.6 116c-2.3 0-4.1-1.9-4.1-4.1 0-2.3 1.8-4.2 4.1-4.2 2.3 0 4.1 1.9 4.1 4.2 0 2.2-1.8 4.1-4.1 4.1zm0-7.4c-1.8 0-3.2 1.5-3.2 3.3 0 1.7 1.4 3.2 3.2 3.2 1.8 0 3.3-1.5 3.3-3.2 0-1.8-1.5-3.3-3.3-3.3z"/><path class="e" d="m364.9 122.8h-0.9v-7.5h0.9z"/><path class="f" d="m544.3 30.9c0 9-7.4 16.3-16.4 16.3-9 0-16.4-7.3-16.4-16.3 0-9.1 7.4-16.4 16.4-16.4 9 0 16.4 7.3 16.4 16.4z"/><path class="e" d="m522.6 36.7q-0.2 0-0.3-0.2c-0.2-0.2-0.2-0.5 0-0.7l10.6-10.6c0.1-0.2 0.5-0.2 0.7 0 0.2 0.2 0.2 0.5 0 0.7l-10.6 10.6q-0.2 0.2-0.4 0.2z"/><path class="e" d="m533.2 36.7q-0.2 0-0.3-0.2l-10.6-10.6c-0.2-0.2-0.2-0.5 0-0.7 0.2-0.2 0.5-0.2 0.7 0l10.6 10.6c0.2 0.2 0.2 0.5 0 0.7q-0.2 0.2-0.4 0.2z"/><path class="g" d="m107.1 648.1c0 0-52.8-60.8-72.8-121.6-19.9-60.9-10.4-53.9-10.4-53.9 0 0 26.9 59.1 47.3 87.6 20.5 28.6 56.9 70.4 56.9 70.4z"/><path class="g" d="m117.6 482.1c-1.7-3-6.2-1.4-5.7 1.9 3.2 21.4 10.2 71.5 9.9 104.1-0.3 42.2 0 58.5 0 58.5h22c0 0-3.9-87.3-8.8-113.9-3.5-18.7-10.9-39.4-17.4-50.6z"/><path class="g" d="m129.6 639.5c0 0 13.9-29.1 18.1-65.6 1.8-15.6-1.4-36.6-6.2-64.6-2.3-13.6-2.8-24-2.8-31.1 0.1-5.4 7.2-7.2 9.9-2.5 2.6 4.8 10.3 20.9 12.3 31.1 5.3 27.7 11.3 41.5 6.7 67.8-4.6 26.2-21.6 66.7-21.6 66.7z"/><path class="g" d="m149.4 641.3c0 0 58.1-124.7 62.1-143.2 4-18.5 17.7-61.1 19.3-58.7 1.6 2.4 4 24.9-6.4 50.7-10.5 25.7-55.1 155-55.1 155h-19.9"/><path class="a" d="m123.3 635.7c0 0.1-0.6-0.3-1.6-1.1-1.1-0.8-2.6-1.9-4.5-3.4-3.9-3.1-9.3-7.7-15.6-13.8-12.7-12.2-28.5-30.9-42.1-54-13.7-23.1-22.9-45.7-28.8-62.3-2.9-8.2-5-15-6.4-19.7-0.7-2.4-1.2-4.2-1.5-5.5-0.4-1.2-0.5-1.9-0.5-1.9 0.1 0 0.3 0.6 0.7 1.9q0.7 2 1.8 5.3c1.5 4.7 3.8 11.4 6.8 19.6 6 16.5 15.3 38.9 28.9 62 13.7 23 29.2 41.7 41.7 54 6.2 6.2 11.5 10.9 15.3 14 1.8 1.6 3.3 2.8 4.3 3.6 1 0.8 1.5 1.3 1.5 1.3z"/><path class="a" d="m129.6 575.9c-0.1 0-0.2-1.3-0.5-3.7-0.3-2.5-0.6-5.9-1.1-9.9-0.9-8.5-2.3-20.1-4.4-32.9-2-12.8-4.3-24.3-6.1-32.6-0.8-4-1.5-7.3-2.1-9.8-0.5-2.3-0.7-3.6-0.6-3.6 0-0.1 0.4 1.2 1.1 3.5 0.6 2.3 1.5 5.6 2.5 9.7 2 8.3 4.4 19.8 6.5 32.6 2 12.8 3.3 24.5 4 33 0.4 4.2 0.6 7.6 0.7 10 0.1 2.4 0.1 3.7 0 3.7z"/><path class="a" d="m143.2 474.7q0.1 0 0.7 1.6 0.7 1.8 1.7 4.7c0.8 2 1.7 4.4 2.5 7.4 0.9 2.9 2 6.2 2.9 10q0.6 2.8 1.4 5.8c0.5 2.1 0.8 4.2 1.3 6.4 0.9 4.5 1.5 9.3 2.2 14.3 1.1 10.1 1.8 21.3 1.4 33-0.5 11.8-1.9 22.9-3.8 32.9-1 5-1.9 9.7-3.2 14.1-0.6 2.2-1.1 4.3-1.7 6.3q-1 3-1.9 5.7c-1.1 3.7-2.5 6.9-3.5 9.8-1.1 2.9-2.1 5.3-3 7.2q-1.3 2.8-2.1 4.5-0.7 1.6-0.8 1.5-0.1 0 0.6-1.6 0.7-1.7 1.8-4.6c0.9-1.9 1.8-4.4 2.8-7.3 1-2.8 2.3-6 3.4-9.7q0.8-2.8 1.7-5.8c0.6-2 1.1-4.1 1.7-6.3 1.2-4.3 2.1-9 3.1-14 1.8-10 3.2-21 3.7-32.7 0.3-11.7-0.3-22.8-1.3-32.9-0.7-5-1.2-9.8-2.1-14.2-0.5-2.2-0.8-4.3-1.2-6.4q-0.7-3-1.4-5.8c-0.8-3.8-1.8-7.1-2.6-10-0.8-3-1.6-5.5-2.3-7.5q-1-2.9-1.5-4.7-0.5-1.6-0.5-1.7z"/><path class="a" d="m230.1 441.9q0.1 0 0 0.6-0.1 0.6-0.3 1.6c-0.2 1.4-0.6 3.5-1.1 6.2-1.1 5.4-3 13.1-5.9 22.4-2.9 9.4-6.9 20.4-11.6 32.5-4.6 12-10.1 25.2-15.2 39.2-5.3 14-9.3 27.6-13.1 40-3.7 12.4-7.3 23.5-10.7 32.7-3.4 9.2-6.7 16.4-9.2 21.3-1.2 2.5-2.3 4.3-2.9 5.6q-0.5 0.8-0.9 1.4-0.2 0.5-0.3 0.5 0-0.1 0.2-0.6 0.3-0.6 0.7-1.4c0.7-1.3 1.7-3.2 2.8-5.7 2.3-5 5.5-12.2 8.7-21.4 3.4-9.2 6.8-20.3 10.5-32.7 3.7-12.4 7.8-26.1 13-40.1 5.2-14.1 10.6-27.2 15.4-39.3 4.7-12 8.8-22.9 11.8-32.2 3-9.3 4.9-17 6.2-22.3 0.6-2.7 1-4.7 1.4-6.2q0.2-0.9 0.4-1.5 0.1-0.6 0.1-0.6z"/><path class="g" d="m51.2 414.4c-3.6-3.7-9.7 0.1-8.2 5.1 1.5 5 3.9 11.4 7.3 18.7 8 17 31.4 77.8 42.4 111.2 10.9 33.4 26.4 95.7 26.4 95.7l23.4-3.8c0 0-21.4-102.4-42.4-139.3-16.8-29.6-33.6-72.5-48.9-87.6z"/><path class="a" d="m99.1 570.3c0-0.1 0.5 0.9 1.2 2.8 0.7 1.8 1.6 4.5 2.7 7.8 2.1 6.7 4.8 16.1 7.4 26.4 2.7 10.4 4.9 19.8 6.4 26.7q1.1 4.8 1.8 8.1c0.4 1.9 0.6 3 0.5 3-0.1 0-0.4-1-1-2.9q-0.8-3.2-2.1-8c-1.8-7.1-4.2-16.3-6.8-26.6-2.6-10.3-5.1-19.7-7.1-26.4q-1.4-4.8-2.3-8c-0.5-1.8-0.8-2.9-0.7-2.9z"/><path class="a" d="m130.8 643.2q0 0-0.1-0.6-0.1-0.7-0.3-1.9c-0.2-1.6-0.4-4-0.9-7.1-0.9-6.1-2.4-15-4.9-25.8-2.5-10.8-6.2-23.5-11-37.4-4.8-13.9-10.8-28.9-17.6-44.4-13.8-31-27.6-58.5-36.6-78.8-4.6-10.2-8.1-18.4-10.5-24.2-1.2-2.9-2-5.1-2.6-6.7q-0.4-1-0.7-1.7-0.2-0.6-0.1-0.6 0 0 0.3 0.5 0.3 0.7 0.7 1.7 1.1 2.4 2.9 6.6c2.4 5.7 6.1 13.9 10.8 24 9.2 20.2 23.1 47.7 36.9 78.7 6.8 15.5 12.8 30.6 17.6 44.5 4.8 13.9 8.3 26.7 10.7 37.6 2.4 10.9 3.9 19.8 4.6 26 0.4 3.1 0.5 5.5 0.7 7.1q0.1 1.1 0.1 1.9 0.1 0.6 0 0.6z"/><path class="a" d="m142.5 641.3c-0.1 0-0.4-1.4-0.8-3.9-0.5-2.8-1.1-6.4-1.8-10.8-1.6-9.1-4.1-21.6-7.6-35.2-3.5-13.6-7.5-25.7-10.5-34.4-1.5-4.2-2.8-7.7-3.7-10.3-0.9-2.4-1.3-3.8-1.2-3.8 0 0 0.6 1.3 1.7 3.6 1 2.4 2.4 5.9 4 10.2 3.2 8.6 7.3 20.8 10.9 34.4 3.5 13.7 5.9 26.2 7.3 35.4 0.6 4.5 1.1 8.2 1.4 10.8 0.3 2.6 0.4 4 0.3 4z"/><path class="d" d="m190.6 749.3h-91.4v-111.4h91.4z"/><g style="opacity:.3"><path  d="m190.6 749.3h-91.4v-111.4h91.4z"/></g><path class="d" d="m161.4 749.3h-81.1v-111.4h81.1z"/><path class="h" d="m724.8 390.1l-48-6.9-96.2 14.2-27 9.5 4.8 59 92.5 17.1 62.3-18.5 23.6-34.7z"/><path class="d" d="m755.1 395.8l-40.2-9.5c0 0-28.4 87.9-98.6 84.1-57.2-3.1-57.9-66.9-57.9-66.9l-41.2 13.2c0 0-15.8 105.7 1.7 180.7 4.1 17.5 9.5 41 9.5 41l-5.6 109.5 304.9 0.5z"/><g style="opacity:.3"><path  d="m635.6 726.7c14.8-0.4 28.5 0.8 43.4 0.5 17.8-0.5 35.7-0.9 53.3 2 13.1 2.2 26 6.2 39.1 8.3 18 2.8 37.2 1.8 53.2-6.9l-2.6-14.9-60.7-14.6z"/></g><path class="d" d="m482.8 441.3c13.9-18 37.1-25.5 37.1-25.5l15.6 135.8-29.5 197.7-96.8-0.4c0 0 53.4-281.5 73.6-307.6z"/><path class="d" d="m750.4 394.8c0 0 65.1 5.2 88.5 111.9 10.6 48.2 23.9 104.8 27.8 142.8 2.8 27.6-12.2 70.7-39.7 74.3l-34.6 4.6c-6.7 0.9-13.7 0.8-20.3-0.7-21.8-5-24.1-20-27.9-35.9l-10.1-31.9c-5.5-30.3 22.7-35.9 38.3-35.6l-11.6-138.2z"/><path class="a" d="m511.8 491.3q0 0-0.3 1.5-0.2 1.6-0.6 4.3-0.2 1.4-0.5 3.1-0.1 1.8-0.3 3.8c-0.3 2.6-0.6 5.7-0.8 9-0.5 6.8-0.5 14.8-0.1 23.8 0.3 8.9 1.4 18.7 2.8 28.9 1.5 10.2 3.4 19.8 5.3 28.6 1.9 8.7 3.8 16.5 5.5 23.1 1.6 6.5 3 11.8 4 15.4q0.7 2.6 1.1 4.2 0.5 1.5 0.5 1.4 0.1 0-0.3-1.4-0.3-1.6-0.9-4.3c-0.9-3.8-2.2-9-3.7-15.5-1.6-6.6-3.4-14.4-5.2-23.1-1.9-8.8-3.7-18.4-5.2-28.6-1.5-10.1-2.5-19.9-3-28.8-0.4-8.9-0.4-16.9 0-23.6 0.1-3.4 0.3-6.4 0.5-9.1q0.2-2 0.3-3.7 0.2-1.7 0.4-3.1 0.3-2.7 0.4-4.4 0.2-1.4 0.1-1.5z"/><path class="a" d="m823.5 661.7c0 0-0.1-0.9-0.5-2.6-0.5-1.8-1.3-4.2-2.6-7.1-2.5-5.7-7.5-13.2-15.4-18.9-7.9-5.7-16.5-8.2-22.8-8.9-3.1-0.3-5.7-0.3-7.4-0.2-1.8 0.1-2.8 0.3-2.8 0.3 0.1 0.2 3.9-0.2 10.1 0.6 6.1 0.9 14.6 3.4 22.3 9 7.7 5.6 12.7 12.9 15.4 18.4 2.7 5.7 3.5 9.5 3.7 9.4z"/><path class="a" d="m808.4 608.6c0-0.1-0.5-0.1-1.6-0.2-1 0-2.4 0.1-4.3 0.2-3.6 0.4-8.5 1.4-13.7 3.5-5.1 2.1-9.4 4.9-12.2 7.2-1.4 1.1-2.5 2.1-3.2 2.9-0.7 0.7-1 1.1-1 1.2 0.1 0.1 1.8-1.4 4.7-3.5 2.8-2.1 7.1-4.8 12.1-6.8 5.1-2.1 9.9-3.2 13.4-3.7 3.6-0.6 5.8-0.6 5.8-0.8z"/><path class="a" d="m741 470.4c0.1 0 0.1-1 0.2-2.8 0-1.9 0.1-4.5 0.3-7.8 0.4-6.5 1.6-15.5 4.3-25.1 2.7-9.6 6.4-17.9 9.4-23.7 1.5-2.9 2.8-5.2 3.8-6.8 0.9-1.6 1.4-2.5 1.3-2.5-0.1-0.1-0.7 0.8-1.7 2.3-1 1.5-2.4 3.8-4 6.6-3.2 5.8-7 14.1-9.8 23.8-2.7 9.7-3.8 18.8-4 25.4-0.2 3.3-0.2 5.9 0 7.8 0 1.8 0.1 2.8 0.2 2.8z"/><path class="a" d="m616.3 567.3q-0.1 0 0.3 1.1c0.2 0.7 0.5 1.8 1 3.2 1 2.7 2.8 6.5 5.5 10.9 2.6 4.5 6.4 9.4 11.4 14.2 4.9 4.8 11.1 9.3 18.2 12.7 7.2 3.4 14.5 5.4 21.3 6.3 6.8 0.9 13.1 0.7 18.2 0 5.1-0.6 9.2-1.7 12-2.6 1.3-0.4 2.4-0.9 3.1-1.1q1.1-0.4 1-0.5c0-0.1-1.5 0.4-4.3 1.2-2.7 0.8-6.8 1.7-11.9 2.3-10.1 1.2-24.8 0.3-39-6.5-14.1-6.8-24-17.7-29.4-26.3-2.7-4.4-4.6-8.1-5.7-10.8-1.1-2.6-1.6-4.1-1.7-4.1z"/><path class="a" d="m753.5 717.4c0.1-0.1 1.1 1.4 3.6 3.4 2.4 1.9 6.5 4.2 11.9 5.6 5.4 1.5 12.2 2.2 19.6 1.8 7.4-0.6 15.7-1.4 24.2-2.7 8.5-1.3 16.6-2.9 23.6-5.4 3.4-1.5 6.2-3.6 8.6-5.8 2.5-2.3 4.5-4.6 6.1-6.9 3.3-4.6 5.4-8.7 6.7-11.6 0.6-1.4 1.1-2.5 1.4-3.3q0.4-1.2 0.5-1.2 0 0-0.3 1.2-0.4 1.3-1.3 3.5c-1.2 2.9-3.1 7.1-6.4 11.8-1.6 2.4-3.6 4.8-6.1 7.1-2.4 2.3-5.3 4.5-8.9 6-7.1 2.8-15.2 4.3-23.8 5.6-8.5 1.3-16.7 2.1-24.2 2.6-7.6 0.4-14.4-0.3-19.9-1.9-5.5-1.6-9.6-4-12-6.1-1.2-1.1-2-2-2.5-2.7q-0.8-1-0.8-1z"/><path class="a" d="m742.8 504.4c0.2 0 7.1 26.6 15.3 59.6 8.2 32.9 14.6 59.7 14.3 59.8-0.2 0-7.1-26.6-15.3-59.6-8.2-32.9-14.6-59.7-14.3-59.8z"/><path class="a" d="m734.5 654.9c-0.1 0-0.2-0.8-0.4-2.2-0.1-1.4-0.3-3.5-0.1-6.1 0.2-2.5 1-5.6 2.9-8.5 1-1.4 2-2.9 3.4-4.2 1.3-1.3 2.9-2.4 4.6-3.4 6.9-3.8 13.9-5.4 19-6.2 2.5-0.3 4.6-0.4 6-0.5 1.4 0 2.2 0 2.2 0.1 0 0.2-3.1 0.3-8.1 1.2-4.9 0.9-11.9 2.6-18.6 6.3-1.6 0.9-3.1 2-4.4 3.2-1.3 1.3-2.3 2.7-3.3 4-1.8 2.8-2.7 5.6-3 8.1-0.2 2.5-0.1 4.6-0.1 6 0 1.4 0 2.2-0.1 2.2z"/><g style="opacity:.3"><path  d="m514.8 580.9c-16.6-28.1-16.9-64.7-2.4-94-4.4 31.2-4 63.2 2.9 93.9"/></g><path class="h" d="m602.8 651.2q0 0 0.1 0-0.1 0-0.1 0z"/><path class="h" d="m603.5 651.5q0.1 0.1 0.3 0.1-0.2 0-0.3-0.1z"/><path class="h" d="m602.9 651.2q0.3 0.2 0.6 0.3-0.3-0.2-0.6-0.3z"/><path class="h" d="m602.5 651q0.2 0.1 0.3 0.2c-0.2-0.1-0.3-0.2-0.3-0.2z"/><path class="h" d="m541.3 707.2c5.3-9.9 46.1-35.9 46.1-35.9l-11-2.6-12.2 5.2c0 0-0.8 5-5.3 11.4-4.5 6.4-12.1-0.2-12.1-0.2l5.2-24.8 24.1-14.5c0 0 22.7 3.5 26.4 5.2l9.7 8.9c4.3 3.3 16.5 16.5 19.9 16.9 3.4 0.4 108.8-23.4 108.8-23.4 14.5 11.5 22.1 34.2 24.4 50.7 0 0 2.6 8-0.2 12.4l-129.5 10.2-27.4 7.5c0 0-15.2 6.2-22.6 7.8-9.1 1.9-15.2-1-15.5-6.1-0.2-5.1 6.8-5.6 6.8-5.6 0 0 11.6-4.2 17.7-7.8 6.1-3.5 9.9-10.9 9.9-10.9l-9.7 1.2c0 0-20.8 14.4-28.7 18.7-7.8 4.2-9.3-3.6-9.9-6-0.7-2.3 23.3-25.8 23.3-25.8 0 0-22.8 14.1-26.9 17.6-4.1 3.6-10.2 4.6-11.5 2.3-1.3-2.4-5-2.5 0.2-12.4z"/><path class="h" d="m603.8 651.6q0.1 0.1 0.2 0.1-0.1 0-0.2-0.1z"/><path class="h" d="m604.1 651.8q0.1 0 0 0z"/><path class="h" d="m604 651.7q0.1 0.1 0.1 0.1 0 0-0.1-0.1z"/><path class="i" d="m653.9 709.5c0 0 0.1-0.6 0.1-1.6q0-0.8-0.1-1.9c-0.1-0.7-0.2-1.5-0.5-2.4-0.8-3.7-3.2-8.4-6.6-12.8-3.5-4.5-7.2-8-10-10.4-2.8-2.4-4.6-3.7-4.7-3.6-0.1 0.1 1.6 1.6 4.2 4.1 2.7 2.5 6.3 6.1 9.7 10.5 3.4 4.3 5.8 8.8 6.7 12.3 1.1 3.5 1 5.8 1.2 5.8z"/><path class="i" d="m588.4 670.5c-0.1 0.2 3.2 0.6 6.9-0.6 3.8-1.3 6.2-3.6 6-3.8-0.2-0.2-2.7 1.7-6.3 2.8-3.5 1.3-6.6 1.3-6.6 1.6z"/><path class="i" d="m581.6 697.6c0.1 0.2 4.7-1.5 10.4-3.8 5.6-2.3 10.1-4.4 10-4.6-0.1-0.3-4.7 1.4-10.4 3.7-5.6 2.3-10.1 4.4-10 4.7z"/><path class="i" d="m603.5 711.4c0.1 0.2 2.4-0.8 5.3-1.9 2.9-1.1 5.3-2 5.2-2.2 0-0.3-2.6 0.2-5.5 1.3-3 1.2-5.1 2.6-5 2.8z"/><path class="i" d="m585 699.4c-0.2 0.2 2.2 1.1 4 3.5 1.8 2.3 2 4.8 2.3 4.8 0.1 0 0.2-0.6 0.1-1.7-0.2-1-0.7-2.4-1.7-3.7-0.9-1.3-2.2-2.1-3.1-2.6-1-0.4-1.6-0.4-1.6-0.3z"/><path class="i" d="m575.4 684.3c-0.2 0.2 1.6 1.2 2.8 3.2 1.2 2.1 1.2 4.1 1.5 4.1 0.2 0.1 0.7-2.2-0.7-4.5-1.3-2.4-3.6-3.1-3.6-2.8z"/><path class="i" d="m578.6 657.3c0.1 0 0.5-0.4 0.8-1.3 0.3-0.9 0.4-2.2 0.1-3.6-0.4-1.4-1.1-2.5-1.8-3.2-0.6-0.7-1.2-0.9-1.2-0.8-0.2 0.2 1.4 1.7 2 4.2 0.7 2.5-0.1 4.6 0.1 4.7z"/><path class="a" d="m766.2 720.2c-0.1 0-0.1-1.1-0.2-3 0-0.9 0-2.1-0.1-3.5-0.1-1.3-0.1-2.9-0.3-4.5-0.6-6.8-2.1-16.2-5.7-26-1.8-4.9-3.9-9.3-6.1-13.3-1.2-1.9-2.2-3.7-3.4-5.4q-0.9-1.2-1.7-2.3-0.9-1.1-1.7-2.1c-4.3-5.3-7.6-8-7.4-8.2 0.1 0 0.9 0.6 2.3 1.9 0.8 0.6 1.6 1.4 2.6 2.4 0.9 1 2 2.1 3.1 3.4q0.8 1 1.7 2.1c0.6 0.7 1.2 1.5 1.8 2.3 1.2 1.7 2.3 3.5 3.5 5.5 2.3 3.9 4.5 8.4 6.3 13.4 3.6 9.9 5 19.3 5.4 26.2 0.2 1.7 0.1 3.3 0.2 4.6q0 2.1-0.1 3.5c0 1.9-0.1 3-0.2 3z"/><g style="opacity:.3"><path  d="m810.6 627.7c-11.9-5-25.9-6.3-38.3-3.5 22.4-1.4 44 13 51.7 33.5 1 2.5 2.8 5.4 5.4 5 2.5-0.4 3.4-3.4 3.4-5.9 0-12.9-10.2-24.1-22.2-29.1z"/></g><path class="e" d="m511.1 482.2c-0.1 0-0.7-0.2-1.8-0.6-1.1-0.4-2.6-1.1-4.5-2.1-3.7-1.8-8.8-4.7-13.9-8.5-5.2-3.8-9.4-7.8-12.3-10.8-1.4-1.6-2.6-2.8-3.3-3.7-0.7-1-1.1-1.5-1.1-1.5 0.2-0.1 1.9 1.8 4.9 4.6 3 2.9 7.3 6.8 12.4 10.5 5.1 3.8 10 6.8 13.7 8.8 3.6 2 5.9 3.1 5.9 3.3z"/><path class="e" d="m741.9 489.7q0 0-0.5 0.4-0.6 0.3-1.5 0.9c-1.3 0.8-3.4 1.9-6 3.3-5.3 2.8-13.2 6.4-23.3 9.8-10.1 3.4-22.5 6.6-36.5 8.8-13.9 2.2-29.5 3.4-45.7 3.8-16.3 0.4-31.9 0.1-46-0.3-14.1-0.3-26.8-1.2-37.4-2.8-10.5-1.6-18.9-3.8-24.6-5.7-2.8-1-5-1.8-6.4-2.4q-1.1-0.4-1.7-0.7-0.5-0.2-0.5-0.2 0-0.1 0.6 0.1 0.6 0.3 1.6 0.6c1.5 0.6 3.7 1.3 6.5 2.2 5.7 1.8 14.1 3.9 24.6 5.4 10.6 1.5 23.3 2.3 37.4 2.6 14.1 0.2 29.6 0.5 45.8 0.1 16.3-0.4 31.7-1.5 45.7-3.7 13.9-2.1 26.2-5.2 36.3-8.5 10.2-3.3 18.1-6.8 23.4-9.5 2.7-1.3 4.7-2.3 6.1-3.1q1-0.5 1.6-0.8 0.5-0.3 0.5-0.3z"/><path class="e" d="m511.8 560.9c-0.1 0.1-0.9-0.1-2.5-0.5q-2.7-0.7-6.7-1.8c-5.6-1.6-13.3-3.9-21.8-6.4-8.5-2.5-16.2-4.9-21.8-6.7q-3.9-1.2-6.5-2.1c-1.6-0.5-2.4-0.9-2.4-0.9 0-0.1 0.9 0.1 2.5 0.5q2.6 0.7 6.6 1.8c5.6 1.6 13.4 3.9 21.9 6.4 8.5 2.5 16.2 4.9 21.7 6.7q4 1.2 6.6 2.1c1.5 0.5 2.4 0.9 2.4 0.9z"/><path class="e" d="m517.6 671.5c-0.1 0.3-20.1-5.4-44.6-12.8-24.6-7.3-44.4-13.5-44.3-13.8 0.1-0.2 20 5.5 44.6 12.8 24.5 7.4 44.4 13.6 44.3 13.8z"/><path class="e" d="m806.6 432.4c0.1 0-0.7 0.7-2.2 1.7-1.4 1.1-3.6 2.6-6.3 4.3-5.4 3.5-13.1 8.1-21.9 12.4-8.8 4.4-17.1 7.7-23.2 9.8-3.1 1.1-5.6 1.9-7.3 2.4-1.7 0.5-2.7 0.7-2.7 0.6 0 0 0.9-0.4 2.6-1q2.8-1.1 7.1-2.7c6-2.3 14.2-5.7 23-10 8.8-4.3 16.6-8.7 22-12.1q4-2.4 6.5-4c1.5-1 2.4-1.5 2.4-1.4z"/><path class="e" d="m846.5 546c0 0.1-1.1 0.6-3.3 1.6-2.1 0.9-5.2 2.1-9.1 3.6-7.7 2.8-18.7 6.2-31.1 8.7-12.4 2.4-23.8 3.5-32 3.8-4.2 0.2-7.5 0.2-9.8 0.2-2.3-0.1-3.6-0.1-3.6-0.2 0-0.1 1.3-0.2 3.6-0.2 2.3-0.1 5.6-0.2 9.7-0.5 8.3-0.5 19.6-1.7 31.9-4.2 12.4-2.4 23.3-5.7 31.1-8.3 3.9-1.4 7-2.5 9.2-3.3 2.2-0.8 3.4-1.3 3.4-1.2z"/><path class="e" d="m788.9 727.8q-0.1 0 0.1-1.1 0.2-1.3 0.5-3.2c0.2-1.3 0.5-3 0.7-5 0.2-1.9 0.5-4.1 0.6-6.6q0.1-1.9 0.3-3.9c0-1.3 0-2.7 0-4.2 0.1-2.9-0.1-6-0.3-9.2-0.5-6.6-1.4-13.7-3.2-21-1.8-7.3-4.2-14.1-6.7-20.1-1.3-3-2.6-5.9-4-8.4-0.6-1.3-1.3-2.5-1.9-3.7q-1.1-1.7-2-3.3c-1.2-2.2-2.5-4-3.6-5.7-1.1-1.6-2.1-3-2.9-4.1q-1.1-1.5-1.9-2.6-0.6-0.9-0.6-0.9 0.1 0 0.8 0.8 0.8 1 2 2.5c0.9 1 2 2.4 3.1 4 1.1 1.6 2.5 3.4 3.7 5.6q1 1.6 2.1 3.3c0.7 1.1 1.3 2.4 2 3.7 1.4 2.5 2.7 5.4 4.1 8.4 2.6 6 5 12.9 6.8 20.2 1.8 7.4 2.7 14.6 3.2 21.2 0.1 3.3 0.3 6.4 0.2 9.3-0.1 1.5 0 2.9-0.1 4.3q-0.2 2-0.3 3.8c-0.2 2.5-0.6 4.7-0.8 6.7-0.3 2-0.6 3.6-0.9 5q-0.4 1.9-0.7 3.1-0.3 1.1-0.3 1.1z"/><path class="e" d="m866.2 666.5c-0.1 0-0.2-1.7-0.7-4.5-0.4-2.9-1.5-7-3.9-11.7-2.3-4.6-6.1-9.7-11.3-14.2-5.1-4.6-11.7-8.6-19.2-11.3-7.5-2.6-15.1-3.6-22-3.9-6.9-0.2-13.2 0.2-18.4 0.7-5.2 0.5-9.4 1.1-12.3 1.4q-2.1 0.2-3.4 0.3-1.2 0.2-1.2 0.1 0-0.1 1.2-0.3 1.3-0.2 3.3-0.5c2.9-0.5 7.1-1.1 12.3-1.7 5.3-0.6 11.5-1.1 18.5-0.9 7 0.2 14.7 1.2 22.3 3.8 7.7 2.8 14.3 6.9 19.6 11.6 5.2 4.6 9 9.8 11.3 14.6 2.3 4.7 3.3 9 3.6 11.9 0.3 1.5 0.2 2.6 0.3 3.4q0 1.2 0 1.2z"/><path class="e" d="m651 608.6q0 0-1.1 0.2-1.3 0.1-3.3 0.3c-3 0.3-7 0.6-12 1-10.1 0.8-24.1 1.8-39.6 2.6-15.5 0.8-29.6 1.3-39.7 1.4-5.1 0-9.2 0-12.1-0.1q-2 0-3.2-0.1-1.2 0-1.2-0.1 0 0 1.2-0.1 1.2 0 3.2-0.1c3 0 7.1-0.1 12.1-0.3 10.1-0.3 24.1-0.9 39.6-1.7 15.4-0.8 29.4-1.6 39.7-2.2 4.9-0.3 9-0.5 12-0.7q2-0.1 3.3-0.1 1.1-0.1 1.1 0z"/><g style="opacity:.3"><path  d="m662.6 612.7c12.6 3.7 30.1 4.6 42.4 0-9.6 13.6-28.2 18.6-44.3 14.1-16.1-4.4-30.9-20.5-32.1-37.2 7.8 10.6 21.4 19.4 34 23.1z"/></g><path class="e" d="m764.8 599.6q0 0-1 0.2-1.2 0.3-2.9 0.7c-2.6 0.5-6.2 1.2-10.8 2-9.1 1.6-21.7 3.5-35.7 5.2-14 1.7-26.7 2.9-35.9 3.5-4.6 0.3-8.4 0.6-10.9 0.7q-1.8 0-3 0.1-1 0-1.1-0.1 0.1 0 1.1-0.1 1.2-0.2 2.9-0.3c2.8-0.3 6.4-0.6 10.9-1 9.2-0.8 21.9-2.1 35.9-3.8 14-1.7 26.6-3.6 35.7-5 4.4-0.7 8.1-1.2 10.8-1.6q1.8-0.3 3-0.5 1-0.1 1 0z"/><g style="opacity:.3"><path  d="m743.8 510.5c-3.1 36.2 6.7 72.1 16.5 107.1 0.6 2.2 1.2 4.4 2.7 6.1 1.5 1.7 4 2.6 6 1.6 3-1.5 2.6-5.9 1.7-9.2q-13.5-52.1-27.1-104.1"/></g><path class="f" d="m237.4 546.6l41.1 201.8h285 71.8c4 0 7.2-3.2 7.2-7.1 0-4-3.2-7.2-7.2-7.2h-71.8l-38.1-187.6c-0.7-3.6-3.9-6.2-7.6-6.3l-272.6-3c-5 0-8.8 4.5-7.8 9.4z"/><path class="a" d="m237.4 546.6q0 0-0.1-0.6c0-0.4-0.1-1 0-1.9 0.1-1.5 1-4.1 3.8-5.9q1-0.6 2.3-0.9c0.9-0.2 1.9-0.2 2.8-0.2q3 0.1 6.4 0.1 7 0 16.1 0.1c24.2 0.2 59.3 0.6 103.1 1 21.9 0.2 46 0.5 71.9 0.7q19.4 0.2 40.3 0.4 10.4 0.1 21.1 0.3 5.3 0 10.8 0.1c0.9 0 1.7 0 2.7 0q1.5 0.2 2.8 0.8c1.7 0.9 3.1 2.4 3.9 4.1 0.4 0.9 0.6 1.9 0.7 2.8l0.6 2.7q0.6 2.7 1.1 5.4 1.1 5.5 2.3 11.1 2.2 11.1 4.5 22.4 4.6 22.7 9.5 46.5c6.4 31.6 13.1 64.5 20 98.4l-0.5-0.4c13.5 0 27.3 0 41.4 0q10.5 0 21.2 0h5.4 2.6c0.9 0 1.9 0 2.8 0.2 1.9 0.4 3.6 1.5 4.7 3.1 1.1 1.6 1.6 3.6 1.3 5.5-0.4 2.3-1.9 4.4-3.9 5.6-1.1 0.5-2.2 0.8-3.4 0.9h-3.3q-6.5 0-13 0-13.1 0-25.9 0-25.7 0-50.7 0c-33.4 0-65.7 0-96.6-0.1-62 0-118.6 0-167.6 0h-0.3v-0.3c-12.6-62.1-22.8-112.5-29.9-147.5-3.5-17.5-6.2-31.1-8.1-40.3q-1.4-6.9-2.1-10.5c-0.5-2.4-0.7-3.6-0.7-3.6 0 0 0.3 1.2 0.8 3.6q0.8 3.5 2.2 10.4c1.9 9.3 4.7 22.9 8.3 40.3 7.2 35 17.5 85.4 30.2 147.4l-0.4-0.3c49 0 105.6 0 167.6-0.1 30.9 0 63.2 0 96.6 0q25 0 50.7 0 12.8 0 25.9 0 6.5 0 13 0h3.3c1-0.1 2-0.3 2.9-0.8 1.8-1 3.1-2.8 3.4-4.8 0.2-1.7-0.2-3.4-1.1-4.8-1-1.4-2.5-2.4-4.1-2.7-0.8-0.2-1.6-0.2-2.6-0.2h-2.6-5.4q-10.7 0-21.2 0c-14.1 0-27.9 0-41.4 0h-0.4l-0.1-0.4c-6.9-33.9-13.5-66.8-19.9-98.4q-4.9-23.8-9.5-46.5-2.3-11.4-4.5-22.5-1.1-5.5-2.2-11-0.6-2.7-1.2-5.4l-0.5-2.7c-0.2-1-0.3-1.8-0.7-2.6-0.7-1.6-1.9-2.9-3.5-3.7q-1.2-0.6-2.5-0.7c-0.8-0.1-1.8-0.1-2.6-0.1q-5.5 0-10.8-0.1-10.8-0.1-21.2-0.2-20.8-0.3-40.2-0.5c-26-0.3-50-0.6-71.9-0.9-43.8-0.5-78.9-0.9-103.1-1.2q-9.1-0.2-16.1-0.2-3.4-0.1-6.4-0.1c-1-0.1-1.9-0.1-2.7 0.1q-1.3 0.3-2.3 0.9c-2.8 1.7-3.7 4.2-3.8 5.8-0.2 1.6 0.1 2.4 0 2.4z"/><path class="e" d="m401.8 638.9c0 6.5-5.2 11.8-11.7 11.8-6.5 0-11.8-5.3-11.8-11.8 0-6.5 5.3-11.7 11.8-11.7 6.5 0 11.7 5.2 11.7 11.7z"/><path class="a" d="m237.8 548.2q0 0 1.2 0 1.3 0 3.6 0c3.2 0 7.9 0 13.9 0 12.1 0 29.5 0.1 51 0.2 43.1 0.3 102.6 0.7 168.3 1.2q12.3 0.1 24.3 0.2 3 0 6 0.1c1 0 2-0.1 3.1 0.1 1 0.2 2 0.6 2.9 1.2 1.7 1.1 3.1 2.9 3.6 4.9 0.4 2 0.8 3.9 1.2 5.8 3 15.2 5.9 29.8 8.7 43.8 5.5 27.9 10.5 53.1 14.6 74.2 4.2 21.2 7.5 38.3 9.8 50.1 1.2 5.9 2 10.5 2.7 13.6q0.4 2.3 0.6 3.6 0.2 1.2 0.2 1.2 0 0-0.3-1.2-0.3-1.2-0.7-3.5c-0.7-3.2-1.6-7.7-2.8-13.6-2.4-11.9-5.9-28.9-10.2-50-4.2-21.2-9.2-46.3-14.8-74.2-2.8-14-5.8-28.6-8.8-43.8-0.4-1.9-0.7-3.9-1.1-5.7-0.5-1.8-1.7-3.4-3.3-4.4q-1.1-0.7-2.5-1c-0.9-0.2-1.9-0.2-2.9-0.2q-3 0-6 0-12-0.1-24.3-0.2c-65.7-0.6-125.2-1.1-168.3-1.5-21.5-0.2-38.9-0.4-51-0.5-6-0.1-10.7-0.2-13.9-0.2q-2.3-0.1-3.6-0.1-1.2-0.1-1.2-0.1z"/><path class="a" d="m714.3 241.7c1 37.2-14.8 74.6-42.2 99.8q-9.4-27.3-18.9-54.6"/><path class="a" d="m572.2 133.1c16.2-8.8 35.7-10.1 53.8-6.5 18.1 3.7 34.9 11.8 50.9 21.1 8.9 5.2 17.8 10.9 24.3 18.9 11.7 14.8 23.3 39.1 24.5 57.9 0.9 15.3-5 53.4-11.4 67.3-5.9 12.7-33.6 22.3-47.2 25.5l-125.3-145.7c4.4-16.2 15.7-30.4 30.4-38.5z"/><path class="a" d="m550.6 152.8l30-5.4c-16.4 39.1-20.9 128.5-30.2 169.9-11.1-16.1-36.8-65-35.4-84.5 1.3-19.4-0.1-83.3 35.6-80z"/><path class="h" d="m693 217.9c-1.6-22.9-16.4-41.6-38.6-47.3l-69.2-17.6c-29.9-3.2-49.8 33.5-51.8 63.5-2.2 33.4-3.5 68.5 0.4 93.4 7.8 50 46.1 56.5 46.1 56.5 0-0.1 0.1 23.8 0.1 38.4l23.1 95.8 74.6-103 15.4-179.1c0.1-0.9 0 0.5-0.1-0.6z"/><path class="a" d="m548.4 254.3c-0.1 3.4 2.7 6.3 6.2 6.5 3.5 0.2 6.5-2.4 6.6-5.8 0.2-3.4-2.6-6.3-6.1-6.5-3.6-0.2-6.5 2.4-6.7 5.8z"/><path class="a" d="m540.9 236.1c0.8 0.9 5.7-2.7 12.6-2.7 6.9-0.1 11.9 3.5 12.7 2.7 0.4-0.4-0.5-1.9-2.7-3.5-2.1-1.6-5.8-3.2-10.1-3.2-4.3 0-7.9 1.6-10 3.2-2.1 1.6-2.9 3.1-2.5 3.5z"/><path class="a" d="m608.6 254.3c-0.1 3.4 2.6 6.3 6.2 6.5 3.5 0.2 6.5-2.4 6.6-5.8 0.1-3.4-2.6-6.3-6.2-6.5-3.5-0.2-6.5 2.4-6.6 5.8z"/><path class="a" d="m606.5 236.1c0.8 0.9 5.6-2.7 12.5-2.7 6.9-0.1 12 3.5 12.7 2.7 0.4-0.4-0.4-1.9-2.6-3.5-2.2-1.6-5.9-3.2-10.2-3.2-4.3 0-7.9 1.6-10 3.2-2.1 1.6-2.8 3.1-2.4 3.5z"/><path class="a" d="m584.9 290.3c0-0.4-4.3-1.1-11.2-2-1.8-0.2-3.4-0.6-3.7-1.8-0.5-1.2 0.3-3.1 1.2-5.2q2.4-6.4 5.2-13.4c7.3-19.1 12.5-34.8 11.8-35.1-0.8-0.3-7.3 15-14.6 34.1q-2.6 7-5 13.5c-0.7 2-1.8 4.2-1 6.9 0.5 1.3 1.8 2.3 2.9 2.6 1.2 0.3 2.2 0.3 3 0.4 7 0.4 11.4 0.4 11.4 0z"/><path class="i" d="m646.3 348.6c0 0-16.3 34.3-66.3 29.5l-0.1-11.7c0 0 33 2.1 66.4-17.8z"/><path class="a" d="m608.6 211.2c0.7 1.9 7.6 1 15.7 2 8.1 0.8 14.6 3.2 15.7 1.5 0.5-0.8-0.6-2.6-3.3-4.4-2.6-1.8-6.8-3.5-11.6-4.1-4.9-0.5-9.3 0.2-12.3 1.4-3 1.2-4.5 2.7-4.2 3.6z"/><path class="a" d="m543.2 215c1.2 1.6 5.9 0 11.7-0.1 5.7-0.3 10.5 1.1 11.6-0.6 0.5-0.8-0.2-2.3-2.3-3.8-2.1-1.5-5.6-2.7-9.5-2.6-4 0.1-7.4 1.5-9.4 3.1-2 1.6-2.7 3.2-2.1 4z"/><path class="a" d="m547 170.8c3.1-7.5 11.3-12 19.4-12.4 8.1-0.4 16.1 2.7 23.1 6.7 29.8 17.2 45.1 58.8 74.5 76.6 7.3 4.4 16.7 0.4 22.8 6.2 6.2 5.8 10.2 15.1 6.8 22.8 3.9-5.4 7.9-10.9 10.2-17.2 2.2-6.4 2.5-13.7-0.8-19.5-2.6-4.5-7.1-7.8-8.3-12.8-1.1-4.3 0.6-8.9 0.4-13.3-0.2-4.6-2.3-8.8-4.5-12.8-11.6-20.4-27.4-38.8-47.9-50.3-13.3-7.5-28.6-11.9-43.9-11.3-15.2 0.5-30.5 6.1-41.7 16.5-6.6 6.2-13.5 12.5-10.1 20.8z"/><path class="h" d="m686.1 254.1c0.5-1.4 26.6-10.8 27 16.9 0.3 26.9-26.9 21.6-26.9 20.8-0.1-0.7-0.1-37.7-0.1-37.7z"/><path class="i" d="m694.4 281.6c0.1-0.1 0.5 0.3 1.3 0.6 0.7 0.4 2.1 0.6 3.5 0.1 2.8-1.1 5.2-5.6 5.2-10.5 0.1-2.4-0.4-4.8-1.3-6.7-0.9-2-2.2-3.3-3.6-3.6-1.4-0.3-2.4 0.6-2.7 1.3-0.4 0.8-0.2 1.3-0.4 1.4 0 0.1-0.6-0.5-0.3-1.6 0.1-0.5 0.4-1.1 1-1.7 0.6-0.5 1.6-0.8 2.6-0.7 2.1 0.1 4 2 4.9 4.2 1.1 2.1 1.8 4.7 1.7 7.4-0.1 5.5-2.8 10.6-6.7 11.7-1.9 0.6-3.5 0-4.3-0.6-0.9-0.7-1-1.3-0.9-1.3z"/><path class="g" d="m696.8 240.3q0 0-1.6-0.9c-1-0.7-2.6-1.6-4.5-2.9-3.8-2.7-9-7.1-14.6-13.3-5.5-6.1-11.4-14.1-17.7-23.1-6.4-8.9-13.4-18.7-22.3-27.6-4.5-4.4-9.3-8.3-14.3-11.4-5.1-3.1-10.3-5.4-15.5-7-10.4-3.4-20.3-4.1-28.5-3.5-8.3 0.5-14.8 2.2-19.2 3.7-2.2 0.7-3.8 1.4-5 1.9-1.1 0.4-1.7 0.6-1.7 0.6q0-0.1 1.6-0.8c1.2-0.6 2.8-1.4 5-2.1 4.3-1.7 10.9-3.6 19.2-4.2 8.3-0.7 18.4 0 28.9 3.3 5.3 1.6 10.7 3.9 15.8 7.1 5.2 3.1 10 7.1 14.6 11.5 9 9 16 18.9 22.3 27.9 6.3 9 12 17 17.5 23.2 5.4 6.2 10.5 10.6 14.2 13.4 1.8 1.4 3.4 2.3 4.3 3 1 0.7 1.6 1.1 1.5 1.2z"/><path class="e" d="m697.5 286.3c2.6-0.5 5.4 1.4 6.1 3.9 0.6 2.6-1 5.6-3.6 6.4-2.5 0.8-5.6-0.7-6.5-3.1-1-2.5 0.3-5.7 2.7-6.8"/><path class="a" d="m696.2 286.7c0.2 0.2-1.8 1-2.4 3.6-0.3 1.3-0.2 3 1 4.3 1.2 1.2 3.2 2 5 1.4 1.9-0.6 3.1-2.4 3.3-4.1 0.3-1.7-0.6-3.2-1.6-4-2.1-1.8-4.1-1.4-4-1.6-0.1 0 0.4-0.3 1.2-0.3 0.9 0 2.1 0.3 3.4 1.2 1.2 0.9 2.4 2.7 2.1 4.9-0.2 2-1.6 4.3-4 5.1-2.4 0.7-4.9-0.3-6.2-1.9-1.5-1.6-1.5-3.8-1.1-5.2 0.5-1.5 1.4-2.4 2.1-2.9 0.7-0.5 1.2-0.5 1.2-0.5z"/><path class="a" d="m690.1 247.9c0.4 7.3 0.7 15.1-2.7 21.6-3.4 6.6-11.9 11-18.3 7.4-5.3-3-6.8-9.7-7.7-15.6-2.6-17.2-3.7-34.5-6.4-51.7z"/><path class="g" d="m553.6 158c0.1 0.2 2.4-0.4 6.7-0.6 4.3-0.1 10.7 0.5 17.9 3.3 3.5 1.4 7.4 3.3 11.1 5.8 3.8 2.5 7.7 5.4 11.5 8.8 7.8 6.6 15.8 14.7 22.6 24.3 3.4 4.8 6.5 9.7 9.7 14.3 3.3 4.6 6.9 8.7 10.8 12.1 7.9 6.8 15.9 11.6 22.8 15.3 6.9 3.6 12.7 6.2 16.6 7.9q2.8 1.2 4.6 2 1.6 0.6 1.7 0.6 0-0.1-1.5-0.9-1.8-0.9-4.5-2.2c-3.9-1.9-9.6-4.6-16.4-8.4-6.7-3.7-14.7-8.6-22.3-15.3-3.9-3.4-7.4-7.4-10.6-12-3.2-4.5-6.2-9.4-9.7-14.3-6.9-9.8-15-17.8-22.8-24.5-4-3.3-7.9-6.3-11.8-8.8-3.9-2.5-7.8-4.3-11.5-5.7-7.4-2.7-13.8-3.1-18.2-2.8-2.2 0.1-3.9 0.4-5 0.7q-1.7 0.4-1.7 0.4z"/><path class="g" d="m690.8 231.2c0 0.1 0.8 0.7 2.4 1.6q2.8 1.7 6.8 4.1 1.1 0.6 2.3 1.3c0.9 0.4 1.8 0.9 3 0.9 0.5 0.1 1.2 0 1.8-0.4 0.6-0.4 0.9-1.1 1-1.8 0-1.4-0.7-2.4-1.3-3.4-2.4-3.9-5.1-8.1-7.9-12.6l-1.1 0.9c2.6 1.9 5.5 3.4 8.7 4.4 3.2 0.9 6.5 1.3 9.6 1.1 0.8 0 1.7-0.1 2.5-0.4 0.8-0.3 1.7-0.8 2.1-1.8 0.4-1 0-2.1-0.5-2.8-0.5-0.7-1-1.2-1.5-1.6-4-3.9-7-8-9.2-11.6-4.3-7.3-5.6-12.5-5.8-12.4-0.1 0 0.1 1.3 0.8 3.6 0.7 2.3 2 5.6 4.1 9.3 2.1 3.8 5 8 9.1 12 1 1 2 2.1 1.6 2.9-0.3 0.9-1.8 1.3-3.3 1.3-2.9 0.2-6-0.2-9.1-1.1-3-0.9-5.8-2.3-8.2-4l-3.2-2.4 2.1 3.3c2.9 4.5 5.6 8.8 8.1 12.6 0.6 1 1.2 1.9 1.2 2.7-0.1 0.7-0.7 1.2-1.6 1.1-1.7-0.1-3.3-1.3-4.8-2q-4.2-2.1-7.1-3.6c-1.6-0.8-2.6-1.2-2.6-1.2z"/><path class="i" d="m611.1 303.1c-0.9-4.2-5.1-7.3-9.3-6.9-3 0.3-5.8 2.4-7.2 5.2-1.4 2.7-1.5 6.1-0.4 9l0.1 0.6c2.9 3.1 7.8 4.2 11.6 2.5 3.8-1.8 6.2-6.3 5.2-10.4z"/><path class="a" d="m589.3 311.2c0-1.1 7-0.8 12.3-6.5 5.2-5.7 4.8-13.2 5.8-13.2 0.4-0.1 1.3 1.7 1.2 4.9-0.1 3.1-1.3 7.5-4.5 11-3.2 3.5-7.3 4.9-10.2 5-2.9 0.1-4.6-0.8-4.6-1.2z"/><path class="e" d="m824.4 735.1q0 0-0.4 0-0.6 0.1-1.4 0.2-2 0.1-5.4 0.4c-4.6 0.4-11.3 0.8-19.6 1.3-16.7 1-39.6 2-65 2.5-25.5 0.4-48.5 0.1-65.1-0.3-8.3-0.2-15.1-0.4-19.7-0.6q-3.4-0.2-5.4-0.3-0.8-0.1-1.4-0.1-0.4 0-0.4-0.1 0 0 0.4 0 0.6 0 1.4 0 2 0 5.4 0c4.7 0.1 11.4 0.2 19.7 0.4 16.6 0.2 39.6 0.3 65-0.1 25.4-0.4 48.4-1.3 65-2.1 8.3-0.4 15-0.7 19.7-1q3.4-0.1 5.4-0.2 0.8-0.1 1.4-0.1 0.4 0 0.4 0.1z"/></svg>