<svg version="1.2" xmlns="http://www.w3.org/2000/svg" viewBox="0 0 1000 733" width="1000" height="733"><defs><clipPath clipPathUnits="userSpaceOnUse" id="cp1"><path d="m1000 888h-1000v-1000h1000z"/></clipPath><clipPath clipPathUnits="userSpaceOnUse" id="cp2"><path d="m856.74 430.04l-28.2-3.97-19.15-2.69c-0.72-11.09-4.56-33.68-23.76-36.37-25.57-3.6-52.09-7.32-52.09-7.32l-4.63 12.49-25.07 37.83-57.22 56.36 149.65 21.03 235.12 33.04v-85.86z"/></clipPath></defs><style>tspan{white-space:pre}.a{font-size: 25px;fill: #e7e8ec;font-weight: 300;font-family: "Montserrat-Light", "Montserrat"}.b{fill:#ccced3}.c{fill:#f6bb91}.d{opacity:.1;mix-blend-mode:multiply;fill:#ea4833}.e{fill:#4b495c}.f{fill:#fff}.g{opacity:.5;mix-blend-mode:multiply;fill:#4a39a4}.h{fill:#ea4833}.i{fill:#617295}.j{opacity:.2;mix-blend-mode:multiply;fill:#617295}.k{fill:#f9fafe}.l{fill:#f28917}.m{font-size: 25px;fill: #617295;font-weight: 300;font-family: "Montserrat-Light", "Montserrat"}.n{font-size: 7px;fill: #617295;font-weight: 700;font-family: "Montserrat-Bold", "Montserrat"}.o{font-size: 7px;fill: #f28917;font-weight: 700;font-family: "Montserrat-Bold", "Montserrat"}.p{fill:none;stroke:#617295;stroke-miterlimit:10;stroke-width:2}.q{fill:none;stroke:#f28917;stroke-linecap:round;stroke-linejoin:round;stroke-width:7.2}.r{opacity:.3;mix-blend-mode:overlay;fill:#fff}.s{opacity:.4;mix-blend-mode:multiply;fill:#f28917}</style><g clip-path="url(#cp1)"><text style="transform:matrix(1.981,-0.278,.278,1.981,297.236,205.69)" ><tspan x="0" y="0" class="a" dx="0 -1 -1 -1 -1 -1 -1 -1 -1 -1 -1 -1 -1" >REGISTRATION
</tspan></text><path fill-rule="evenodd" class="b" d="m1008.7 568.6l-232-35 16.3 116.4c1.3 8.6-4.8 16.7-13.5 17.9l-459.9 64.6c-8.7 1.3-16.8-4.8-18-13.5l-27.8-197.8-42.9 6-21.6 3-216.6 30.5v-85.9l156.1-21.9 28.2-4 19.2-2.7c0.7-11.1 4.5-33.7 23.7-36.4 8.8-1.2 17.7-2.5 25.6-3.6l11.9-1.6-37.2-265.2c-1.3-8.7 4.8-16.7 13.5-18l88.1-12.4c9.7-15.6 26.1-27 45.7-29.7l51-7.2c-3.3-23.5 13-45.2 36.5-48.5 20.7-2.9 40 9.5 46.6 28.6q0 0.1 0 0.2 0.7 1.8 1.1 3.7 0 0.1 0.1 0.2 0.4 1.9 0.7 3.9l49.9-7c7.7-1.1 15.2-0.8 22.4 0.7 11.2 2.4 21.4 7.8 29.7 15.3l88.1-12.4c8.7-1.2 16.8 4.8 18 13.5l46.9 333.7q1 0.1 2.2 0.3l4.5 0.6q1.3 0.2 2.6 0.4l1 0.1q1.5 0.2 3.1 0.5l1.7 0.2c8.1 1.1 17.5 2.4 26.7 3.7q1 0.2 2.1 0.4 0.3 0.1 0.5 0.2 0.8 0.2 1.5 0.4 0.3 0.1 0.5 0.2 1 0.3 1.8 0.7 0.1 0 0.1 0 0.8 0.4 1.7 0.9 0.2 0.1 0.4 0.3 0.6 0.3 1.2 0.7 0.2 0.2 0.4 0.3 0.8 0.6 1.5 1.2 0 0 0 0 0.7 0.6 1.3 1.3 0.2 0.1 0.4 0.3 0.4 0.5 0.9 1 0.1 0.2 0.3 0.5 0.6 0.6 1.1 1.4 0 0 0 0 0.5 0.7 1 1.5 0.2 0.2 0.3 0.5 0.4 0.6 0.7 1.2 0.1 0.2 0.2 0.4 0.5 0.8 0.8 1.6 0.1 0 0.1 0.1 0.3 0.8 0.7 1.6 0.1 0.3 0.2 0.5 0.2 0.7 0.5 1.3 0.1 0.3 0.2 0.5 0.3 0.8 0.5 1.6 0 0.1 0 0.1 0.3 0.9 0.5 1.7 0.1 0.3 0.2 0.5 0.1 0.7 0.3 1.3 0.1 0.3 0.1 0.5 0.2 0.8 0.4 1.6 0 0 0 0.1 0.2 0.8 0.3 1.7 0.1 0.2 0.1 0.4 0.1 0.6 0.2 1.2 0 0.3 0.1 0.5 0.1 0.7 0.2 1.4 0 0.1 0 0.2 0.1 0.7 0.1 1.4 0.1 0.3 0.1 0.5 0 0.5 0.1 1 0 0.2 0 0.4 0.1 0.6 0.1 1.1 0 0.1 0 0.2 0 0 0 0l3.8 0.5 15.4 2.2 4.6 0.6 14.3 2.1 9.3 1.3 137.3 19.3zm-525-502.8q0-0.4 0-0.7 0-1.1-0.2-2.2-0.1-1.1-0.4-2.2-0.2-0.8-0.5-1.7 0-0.2-0.1-0.4-0.7-2-1.8-3.8c-4.4-7.9-13.4-12.6-22.9-11.3-12.4 1.8-21.1 13.3-19.4 25.7 1.8 12.5 13.3 21.2 25.7 19.4q2.7-0.4 5-1.3c2.4-0.9 4.5-2.1 6.4-3.7q0.1-0.1 0.3-0.2 0.5-0.5 1.1-1 0.1-0.2 0.3-0.4 0.5-0.5 1-1 0.2-0.3 0.4-0.5 0.4-0.5 0.8-1.1 0.2-0.2 0.4-0.5 0.4-0.6 0.7-1.1 0.2-0.3 0.3-0.6 0.5-0.9 1-2 0.2-0.5 0.4-1 0.2-0.4 0.3-0.8 0.2-0.6 0.4-1.1 0.1-0.5 0.2-0.9 0.1-0.6 0.3-1.2 0-0.4 0.1-0.9 0.1-0.6 0.1-1.2 0.1-0.5 0.1-0.9 0-0.7 0-1.4z"/><path class="c" d="m646.6 486.4l151.9 21.3 11-78.2c0 0 1.7-38.9-23.9-42.5-25.5-3.6-52.1-7.3-52.1-7.3l-4.6 12.5-25.1 37.8z"/><path class="d" d="m742.1 407.2l14.3 2c0 0 53.8 46.7 31.6 37.6-3-1.3-34.1 11.7-45.7 31.6-11.5 19.8-51.6-14.2-51.6-14.2 0 0 31.4-58.6 51.4-57z"/><path class="e" d="m1008.7 451.4l-200.6-28.2-11.8 84.2 212.4 29.8z"/><path class="f" d="m892.8 456.9c0 5.5-4.4 9.9-9.9 9.9-5.4 0-9.8-4.4-9.8-9.9 0-5.4 4.4-9.8 9.8-9.8 5.5 0 9.9 4.4 9.9 9.8z"/><path class="f" d="m847.5 428.7l-39.4-5.5-11.8 84.2 40.5 5.7c4.3-28 8.1-56.1 10.7-84.4z"/><path class="f" d="m816.7 510.3l28.2 3.9 11.8-84.2-28.2-3.9z"/><g clip-path="url(#cp2)"><path class="g" d="m1008.7 508l-268.6-41.7 1.9 41.4 266.7 40.3z"/></g><path class="c" d="m344.3 486.4l-151.9 21.3-11-78.2c0 0-1.7-38.9 23.9-42.5 25.6-3.6 52.1-7.3 52.1-7.3l4.6 12.5 25.1 37.8z"/><path class="d" d="m248.8 407.2l-14.3 2c0 0-53.8 46.7-31.6 37.6 3-1.3 34.2 11.7 45.7 31.6 11.6 19.8 51.7-14.2 51.7-14.2 0 0-31.5-58.6-51.5-57z"/><path class="e" d="m-7.3 535.8l202-28.4-11.9-84.2-190.1 26.7z"/><path class="f" d="m112.8 458.3c0 5.4-4.4 9.8-9.9 9.8-5.4 0-9.8-4.4-9.8-9.8 0-5.5 4.4-9.9 9.8-9.9 5.5 0 9.9 4.4 9.9 9.9z"/><path class="f" d="m155.9 512.8l38.8-5.4-11.9-84.2-37.9 5.3c4.2 28.1 7.9 56.2 11 84.3z"/><path class="f" d="m174.2 510.3l-28.2 3.9-11.8-84.2 28.2-3.9z"/><path class="g" d="m267.5 461.6l-274.8 40.3v33.9l202-28.4 76.2-10.7z"/><path class="c" d="m342.9 430.5l-60.6 8.5c-4.9 0.7-9.5-2.8-10.2-7.7-0.7-4.9 2.7-9.5 7.7-10.2l60.6-8.5c5-0.7 9.6 2.7 10.3 7.7 0.6 4.9-2.8 9.5-7.8 10.2z"/><path class="c" d="m345.5 448.4l-67.7 9.5c-4.9 0.7-9.5-2.8-10.2-7.7-0.7-4.9 2.8-9.5 7.7-10.2l67.6-9.5c5-0.7 9.6 2.8 10.3 7.7 0.7 4.9-2.8 9.5-7.7 10.2z"/><g style="opacity:.4;mix-blend-mode:multiply"><path class="h" d="m282.3 439c10-2.4 20-4 30.1-5.5 10.2-1.4 20.3-2.6 30.5-3-9.9 2.4-20 4-30.1 5.5-10.1 1.3-20.3 2.5-30.5 3z"/></g><path class="c" d="m348 466.3l-60.7 8.6c-4.9 0.7-9.5-2.8-10.2-7.7-0.7-5 2.8-9.6 7.7-10.3l60.7-8.5c4.9-0.7 9.5 2.8 10.2 7.7 0.7 4.9-2.8 9.5-7.7 10.2z"/><g style="opacity:.4;mix-blend-mode:multiply"><path class="h" d="m284.8 456.9c10-2.3 20.1-4 30.2-5.4 10.1-1.4 20.2-2.6 30.5-3.1-10 2.4-20.1 4-30.2 5.5-10.1 1.4-20.2 2.6-30.5 3z"/></g><path class="c" d="m351 484.2l-52.7 7.4c-4.7 0.7-9-2.6-9.6-7.2l-0.2-1.1c-0.6-4.6 2.6-9 7.3-9.6l52.7-7.4c4.7-0.7 9 2.6 9.6 7.2l0.2 1.1c0.6 4.6-2.6 8.9-7.3 9.6z"/><g style="opacity:.4;mix-blend-mode:multiply"><path class="h" d="m287.3 474.9c10-2.4 20.1-4.1 30.2-5.5 10.1-1.4 20.2-2.6 30.5-3.1-10 2.4-20.1 4.1-30.2 5.5-10.1 1.4-20.2 2.6-30.5 3.1z"/></g><path class="i" d="m764.9 645.1l-460 64.6c-8.7 1.2-16.7-4.8-17.9-13.5l-81.5-579.7c-1.2-8.6 4.9-16.7 13.5-17.9l460-64.6c8.7-1.3 16.7 4.8 17.9 13.5l81.5 579.6c1.2 8.7-4.8 16.8-13.5 18z"/><path class="j" d="m753 615.9l-429.2 60.4-77.7-552.6 429.3-60.3z"/><path class="k" d="m741.5 610.1l-429.2 60.4-77.6-552.6 429.2-60.3z"/><path class="l" d="m538.7 30.3l-65.3 9.2c0.8 13.2-7.8 28.4-21.6 30.4-15.4 2.1-30.8-4.6-34.9-21-0.1-0.4-0.1-0.9-0.2-1.4l-63.8 9c-35.2 4.9-59.8 37.5-54.8 72.7l313.4-44.1c-5-35.2-37.6-59.7-72.8-54.8z"/><path fill-rule="evenodd" class="l" d="m488.9 37.3c3.3 23.5-13.1 45.2-36.6 48.5-23.5 3.3-45.2-13-48.5-36.5-3.3-23.5 13.1-45.2 36.6-48.5 23.5-3.3 45.2 13.1 48.5 36.5zm-20 2.8c-1.8-12.4-13.3-21.1-25.7-19.3-12.5 1.7-21.1 13.2-19.4 25.7 1.8 12.4 13.3 21.1 25.7 19.4 12.5-1.8 21.1-13.3 19.4-25.8z"/><text style="transform:matrix(1.981,-0.278,.278,1.981,293.251,195.046)" ><tspan x="0" y="0" class="m" dx="0 -1 -1 -1 -1 -1 -1 -1 -1 -1 -1 -1 -1" >REGISTRATION
</tspan></text><text style="transform:matrix(1.981,-0.278,.278,1.981,353.825,228.811)" ><tspan x="0" y="0" class="n" dx="0 1 1 1 1 1 1 1 1" >PERSONAL </tspan><tspan  y="0" class="o" dx="0 1 1 1 1 1 1 1 1 1 1 1" >INFORMATION
</tspan></text><text style="transform:matrix(1.981,-0.278,.278,1.981,396.565,439.132)" ><tspan x="0" y="0" class="n" dx="0 1 1 1 1 1 1 1" >CONTACT </tspan><tspan  y="0" class="o" dx="0 1 1 1 1 1 1 1 1 1 1 1" >INFORMATION
</tspan></text><path class="p" d="m339 364.8l-23.5 3.4-3.3-23.6 23.5-3.3z"/><path class="p" d="m344 400.4l-23.5 3.4-3.3-23.6 23.5-3.3z"/><path class="p" d="m349.3 357.4l312.1-43.9"/><path class="p" d="m347.7 345.6l312.1-43.8"/><path class="p" d="m300.3 274l348.7-49"/><path class="p" d="m302.8 291l348.7-49"/><path class="p" d="m305.4 308l348.6-49"/><path class="p" d="m307.9 324.9l348.7-49"/><path class="p" d="m354.3 393l312.1-43.9"/><path class="p" d="m352.7 381.2l312.1-43.8"/><path class="q" d="m312.9 349.6l13 9.8 18.1-24"/><path class="q" d="m317.9 385.2l13 9.8 18.1-24"/><path class="p" d="m369.7 580.5l-23.5 3.3-3.3-23.6 23.5-3.3z"/><path class="p" d="m374.7 616.1l-23.5 3.3-3.3-23.6 23.5-3.3z"/><path class="p" d="m380 573l312.1-43.9"/><path class="p" d="m378.4 561.2l312.1-43.8"/><path class="p" d="m331 489.6l348.7-49"/><path class="p" d="m333.5 506.6l348.7-49"/><path class="p" d="m336 523.6l348.7-49"/><path class="p" d="m338.6 540.6l348.7-49.1"/><path class="p" d="m385 608.6l312.1-43.9"/><path class="p" d="m383.4 596.8l312.1-43.8"/><path class="q" d="m343.6 565.2l13 9.8 18.1-24"/><path class="q" d="m348.6 600.9l13 9.7 18.1-24"/><path class="c" d="m718.8 403.9l37.6 5.3c7.1 1 13.7-4 14.7-11.1 1-7.1-3.9-13.7-11-14.7l-37.7-5.3c-7.1-1-13.7 4-14.7 11.1-1 7.1 4 13.7 11.1 14.7z"/><path class="f" d="m733.5 379.7l-1.6 11.9c0 0-8.6-1.2-13.9-1.9-5.2-0.8-2.3-12 3.2-11.7z"/><path class="c" d="m272.1 403.9l-37.6 5.3c-7.1 1-13.7-4-14.7-11.1-1-7.1 4-13.7 11.1-14.7l37.6-5.3c7.1-1 13.7 4 14.7 11.1 1 7.1-4 13.7-11.1 14.7z"/><path class="f" d="m257.4 379.7l1.7 11.9c0 0 8.6-1.2 13.8-1.9 5.3-0.8 2.4-12-3.2-11.7z"/><path class="l" d="m637.2 87.9l-358.3 50.3-2.1-14.8 358.3-50.3z"/><path class="r" d="m305.6 115.7c0 0 1.1-48.1 60.5-55.8 0 0-22 15.8-18.3 49.6z"/><path class="s" d="m534.7 36.1c0 0 52.9-5.4 64.8 42l-50.2 7c0 0 14.8-25.7-14.6-49z"/><path class="s" d="m486.2 28c1.8 4.7 2.9 9.9 2.9 15.3 0 23.7-19.2 42.8-42.8 42.8-16 0-29.8-8.7-37.2-21.5 6.2 16 21.7 27.4 39.9 27.4 23.7 0 42.9-19.2 42.9-42.8 0-7.7-2.1-15-5.7-21.2z"/></g></svg>